<svg width="58" height="58" viewBox="0 0 58 58" fill="none" xmlns="http://www.w3.org/2000/svg">
<path d="M42.899 4.5C42.434 2.221 40.415 0.5 38 0.5C37.448 0.5 37 0.947 37 1.5C37 2.053 37.448 2.5 38 2.5C39.654 2.5 41 3.846 41 5.5C41 7.154 39.654 8.5 38 8.5C37.448 8.5 37 8.947 37 9.5C37 10.053 37.448 10.5 38 10.5C40.414 10.5 42.434 8.779 42.899 6.5H56V13.5H44H42H30H28H16H14H2V6.5H16H19C19.552 6.5 20 6.053 20 5.5C20 4.947 19.552 4.5 19 4.5H17.184C17.598 3.338 18.698 2.5 20 2.5C21.654 2.5 23 3.846 23 5.5C23 7.154 21.654 8.5 20 8.5C19.448 8.5 19 8.947 19 9.5C19 10.053 19.448 10.5 20 10.5C22.757 10.5 25 8.257 25 5.5C25 2.743 22.757 0.5 20 0.5C17.586 0.5 15.566 2.221 15.101 4.5H0V13.5V16.5V27.5V29.5V41.5V43.5V57.5H14H16H28H30H42H44H58V43.5V41.5V29.5V27.5V16.5V13.5V4.5H42.899ZM30 15.5H42V27.5H30V15.5ZM42 41.5H30V29.5H42V41.5ZM16 29.5H28V41.5H16V29.5ZM16 15.5H28V27.5H16V15.5ZM2 16.5V15.5H14V27.5H2V16.5ZM2 29.5H14V41.5H2V29.5ZM2 55.5V43.5H14V55.5H2ZM16 55.5V43.5H28V55.5H16ZM30 55.5V43.5H42V55.5H30ZM56 55.5H44V43.5H56V55.5ZM56 41.5H44V29.5H56V41.5ZM44 27.5V15.5H56V16.5V27.5H44Z" fill="#30BCC9"/>
</svg>
